<svg width="255" height="65" viewBox="0 0 255 65" fill="none" xmlns="http://www.w3.org/2000/svg">
<path d="M0 25.6464L7.08549 17.9443H45.8473L52.3076 25.7505C50.953 34.7013 41.8877 29.7055 42.2003 25.6464C41.6793 32.4116 32.6141 33.1401 31.6763 25.6464C31.6763 32.4116 21.1523 33.0361 21.1523 25.6464C21.1523 32.6198 10.524 32.8279 10.524 25.6464C10.524 32.6198 0 33.1401 0 25.6464Z" fill="#12C3F7"/>
<path d="M7.08549 13.3596C7.08549 12.4388 7.83191 11.6924 8.75266 11.6924H44.1801C45.1008 11.6924 45.8473 12.4388 45.8473 13.3596V15.6519H7.08549V13.3596Z" fill="#6736DD"/>
<path d="M26.2984 48.5053C29.216 48.5053 30.6748 46.6297 38.1771 39.7527L38.3854 59.1336C38.3854 61.8427 40.782 64.1351 43.5954 64.1351C46.0961 64.1351 48.8053 62.1553 48.8053 59.1336V33.5008C48.8053 33.5008 45.3667 34.3343 42.5534 31C37.1351 36.3141 32.1335 31.4168 32.1335 31.4168L26.4026 36.5225L20.9843 31.8336C17.5458 34.2302 14.1072 34.2302 10.8771 31.4168C8.79312 33.1882 6.98366 33.783 4 33.5008V59.1336C4 61.8427 6.39656 64.1351 9.20992 64.1351C11.7107 64.1351 14.4198 62.1553 14.4198 59.1336V39.7527C21.9221 46.6297 23.3809 48.5053 26.2984 48.5053Z" fill="#6736DD"/>
<path d="M71.1128 54.7401C71.3965 54.7401 71.628 54.8334 71.8072 55.0201C71.9864 55.2068 72.076 55.4494 72.076 55.7481V61.8412C72.076 62.1249 71.9939 62.3489 71.8296 62.5132C71.6653 62.6774 71.4488 62.7596 71.18 62.7596C70.9186 62.7596 70.7021 62.6774 70.5304 62.5132C70.3661 62.3489 70.2839 62.1249 70.2839 61.8412V58.5482L69.0071 60.9003C68.8802 61.1393 68.7458 61.311 68.6039 61.4155C68.462 61.5126 68.294 61.5611 68.0999 61.5611C67.9057 61.5611 67.7377 61.5126 67.5958 61.4155C67.454 61.311 67.3196 61.1393 67.1926 60.9003L65.927 58.6154V61.8412C65.927 62.1174 65.8411 62.3414 65.6694 62.5132C65.5051 62.6774 65.2886 62.7596 65.0197 62.7596C64.7584 62.7596 64.5419 62.6774 64.3701 62.5132C64.2059 62.3489 64.1237 62.1249 64.1237 61.8412V55.7481C64.1237 55.4494 64.2133 55.2068 64.3925 55.0201C64.5792 54.8334 64.8144 54.7401 65.0982 54.7401C65.2998 54.7401 65.4827 54.7998 65.647 54.9193C65.8112 55.0313 65.9494 55.1956 66.0614 55.4121L68.1223 59.2875L70.1719 55.4121C70.4034 54.9641 70.717 54.7401 71.1128 54.7401ZM91.3945 61.4267C91.4617 61.5686 91.4953 61.7067 91.4953 61.8412C91.4953 62.0876 91.3945 62.2966 91.1929 62.4684C90.9987 62.6401 90.7747 62.726 90.5208 62.726C90.3491 62.726 90.1923 62.6812 90.0504 62.5916C89.9085 62.502 89.7965 62.3676 89.7144 62.1884L89.2104 61.0571H85.5815L85.0662 62.1884C84.9841 62.3676 84.8684 62.502 84.719 62.5916C84.5771 62.6812 84.4203 62.726 84.2486 62.726C83.9947 62.726 83.7633 62.6401 83.5542 62.4684C83.3526 62.2966 83.2518 62.0876 83.2518 61.8412C83.2518 61.7067 83.2854 61.5686 83.3526 61.4267L86.3095 55.3561C86.4066 55.1545 86.5484 55.0014 86.7351 54.8969C86.9292 54.7849 87.142 54.7289 87.3735 54.7289C87.5975 54.7289 87.8066 54.7849 88.0007 54.8969C88.1949 55.0014 88.3405 55.1545 88.4376 55.3561L91.3945 61.4267ZM88.516 59.5115L87.3959 57.0138L86.2759 59.5115H88.516ZM109.301 61.3819C109.435 61.5835 109.503 61.7739 109.503 61.9532C109.503 62.1921 109.402 62.3937 109.2 62.558C109.006 62.7148 108.778 62.7932 108.517 62.7932C108.338 62.7932 108.17 62.7521 108.013 62.67C107.856 62.5878 107.722 62.4646 107.61 62.3004L106.154 60.1723C106.049 60.0229 105.937 59.9147 105.818 59.8475C105.706 59.7728 105.571 59.7355 105.415 59.7355H104.686V61.7403C104.686 62.054 104.597 62.3041 104.418 62.4908C104.238 62.67 103.992 62.7596 103.678 62.7596C103.365 62.7596 103.115 62.67 102.928 62.4908C102.749 62.3041 102.659 62.054 102.659 61.7403V55.7481C102.659 55.442 102.741 55.2068 102.906 55.0425C103.07 54.8782 103.305 54.7961 103.611 54.7961H106.423C107.378 54.7961 108.095 55.0052 108.573 55.4233C109.058 55.834 109.301 56.4313 109.301 57.2154C109.301 57.8127 109.137 58.3205 108.808 58.7386C108.48 59.1493 108.017 59.4256 107.419 59.5675C107.666 59.6048 107.879 59.6869 108.058 59.8139C108.244 59.9408 108.427 60.1312 108.607 60.3851L109.301 61.3819ZM106.098 58.1898C106.553 58.1898 106.878 58.1189 107.072 57.977C107.274 57.8351 107.375 57.6037 107.375 57.2826C107.375 56.954 107.274 56.7188 107.072 56.577C106.878 56.4276 106.553 56.3529 106.098 56.3529H104.664V58.1898H106.098ZM127.547 61.1467C127.741 61.3334 127.838 61.5499 127.838 61.7963C127.838 62.0428 127.745 62.2593 127.558 62.446C127.371 62.6326 127.151 62.726 126.897 62.726C126.621 62.726 126.367 62.6065 126.136 62.3676L122.944 59.097V61.7403C122.944 62.054 122.85 62.3041 122.664 62.4908C122.477 62.67 122.223 62.7596 121.902 62.7596C121.588 62.7596 121.338 62.67 121.151 62.4908C120.972 62.3041 120.883 62.054 120.883 61.7403V55.7481C120.883 55.442 120.972 55.1993 121.151 55.0201C121.338 54.8334 121.588 54.7401 121.902 54.7401C122.223 54.7401 122.477 54.8334 122.664 55.0201C122.85 55.1993 122.944 55.442 122.944 55.7481V58.2122L126.091 55.0425C126.285 54.8409 126.505 54.7401 126.752 54.7401C126.998 54.7401 127.215 54.8334 127.401 55.0201C127.588 55.1993 127.681 55.4121 127.681 55.6585C127.681 55.9049 127.573 56.1327 127.356 56.3417L125.06 58.593L127.547 61.1467ZM139.96 62.6924C139.654 62.6924 139.418 62.6102 139.254 62.446C139.09 62.2817 139.008 62.0465 139.008 61.7403V55.7481C139.008 55.442 139.09 55.2068 139.254 55.0425C139.418 54.8782 139.654 54.7961 139.96 54.7961H143.835C144.156 54.7961 144.399 54.8633 144.563 54.9977C144.727 55.1321 144.809 55.3262 144.809 55.5801C144.809 56.1177 144.485 56.3865 143.835 56.3865H141.013V57.8874H143.611C144.261 57.8874 144.585 58.1525 144.585 58.6826C144.585 58.9365 144.503 59.1306 144.339 59.2651C144.175 59.3995 143.932 59.4667 143.611 59.4667H141.013V61.1019H143.835C144.485 61.1019 144.809 61.3707 144.809 61.9084C144.809 62.1622 144.727 62.3564 144.563 62.4908C144.399 62.6252 144.156 62.6924 143.835 62.6924H139.96ZM158.993 62.7484C158.679 62.7484 158.425 62.6588 158.231 62.4796C158.044 62.2929 157.951 62.0465 157.951 61.7403V56.4649H156.372C156.043 56.4649 155.797 56.3977 155.632 56.2633C155.476 56.1215 155.397 55.9087 155.397 55.6249C155.397 55.3412 155.476 55.1321 155.632 54.9977C155.797 54.8633 156.043 54.7961 156.372 54.7961H161.614C161.942 54.7961 162.185 54.8633 162.342 54.9977C162.506 55.1321 162.588 55.3412 162.588 55.6249C162.588 55.9087 162.506 56.1215 162.342 56.2633C162.185 56.3977 161.942 56.4649 161.614 56.4649H160.034V61.7403C160.034 62.0465 159.937 62.2929 159.743 62.4796C159.556 62.6588 159.306 62.7484 158.993 62.7484ZM174.571 62.7596C174.257 62.7596 174.007 62.67 173.82 62.4908C173.641 62.3041 173.551 62.054 173.551 61.7403V55.7481C173.551 55.442 173.633 55.2068 173.798 55.0425C173.962 54.8782 174.197 54.7961 174.503 54.7961H177.371C178.244 54.7961 178.924 55.0201 179.409 55.4681C179.895 55.9087 180.137 56.5247 180.137 57.3162C180.137 58.1002 179.891 58.7162 179.398 59.1642C178.913 59.6123 178.237 59.8363 177.371 59.8363H175.612V61.7403C175.612 62.054 175.519 62.3041 175.332 62.4908C175.146 62.67 174.892 62.7596 174.571 62.7596ZM177.091 58.2906C177.471 58.2906 177.751 58.2122 177.931 58.0554C178.117 57.8986 178.211 57.6559 178.211 57.3274C178.211 56.6778 177.837 56.3529 177.091 56.3529H175.612V58.2906H177.091ZM192.388 62.6924C192.082 62.6924 191.846 62.6102 191.682 62.446C191.518 62.2817 191.436 62.0428 191.436 61.7291V55.7481C191.436 55.442 191.525 55.1993 191.705 55.0201C191.891 54.8334 192.141 54.7401 192.455 54.7401C192.776 54.7401 193.03 54.8334 193.217 55.0201C193.403 55.1993 193.497 55.442 193.497 55.7481V61.0235H196.073C196.722 61.0235 197.047 61.3035 197.047 61.8636C197.047 62.1473 196.965 62.3564 196.801 62.4908C196.644 62.6252 196.401 62.6924 196.073 62.6924H192.388ZM215.754 61.4267C215.821 61.5686 215.855 61.7067 215.855 61.8412C215.855 62.0876 215.754 62.2966 215.552 62.4684C215.358 62.6401 215.134 62.726 214.88 62.726C214.708 62.726 214.552 62.6812 214.41 62.5916C214.268 62.502 214.156 62.3676 214.074 62.1884L213.57 61.0571H209.941L209.426 62.1884C209.343 62.3676 209.228 62.502 209.078 62.5916C208.936 62.6812 208.78 62.726 208.608 62.726C208.354 62.726 208.123 62.6401 207.913 62.4684C207.712 62.2966 207.611 62.0876 207.611 61.8412C207.611 61.7067 207.645 61.5686 207.712 61.4267L210.669 55.3561C210.766 55.1545 210.908 55.0014 211.094 54.8969C211.289 54.7849 211.501 54.7289 211.733 54.7289C211.957 54.7289 212.166 54.7849 212.36 54.8969C212.554 55.0014 212.7 55.1545 212.797 55.3561L215.754 61.4267ZM212.875 59.5115L211.755 57.0138L210.635 59.5115H212.875ZM230.552 62.7932C229.76 62.7932 229.066 62.6289 228.468 62.3004C227.878 61.9718 227.419 61.5014 227.091 60.8891C226.77 60.2768 226.609 59.56 226.609 58.7386C226.609 57.9247 226.77 57.2116 227.091 56.5994C227.419 55.9871 227.878 55.5166 228.468 55.1881C229.066 54.8596 229.76 54.6953 230.552 54.6953C231.5 54.6953 232.332 54.9454 233.049 55.4457C233.176 55.5353 233.266 55.6324 233.318 55.7369C233.378 55.8415 233.408 55.9759 233.408 56.1401C233.408 56.3716 233.341 56.5695 233.206 56.7338C233.079 56.8906 232.922 56.969 232.736 56.969C232.624 56.969 232.523 56.954 232.433 56.9242C232.344 56.8868 232.239 56.8308 232.12 56.7562C231.858 56.5994 231.612 56.4873 231.38 56.4201C231.149 56.3529 230.91 56.3193 230.664 56.3193C229.999 56.3193 229.503 56.5209 229.174 56.9242C228.853 57.3199 228.692 57.9247 228.692 58.7386C228.692 59.56 228.853 60.1723 229.174 60.5755C229.503 60.9713 229.999 61.1691 230.664 61.1691C230.888 61.1691 231.104 61.1355 231.313 61.0683C231.522 60.9937 231.791 60.8816 232.12 60.7323C232.276 60.6502 232.392 60.5942 232.467 60.5643C232.542 60.5344 232.631 60.5195 232.736 60.5195C232.922 60.5195 233.079 60.6016 233.206 60.7659C233.341 60.9227 233.408 61.1169 233.408 61.3483C233.408 61.5051 233.378 61.6395 233.318 61.7515C233.266 61.8561 233.176 61.9532 233.049 62.0428C232.332 62.543 231.5 62.7932 230.552 62.7932ZM245.658 62.6924C245.352 62.6924 245.117 62.6102 244.952 62.446C244.788 62.2817 244.706 62.0465 244.706 61.7403V55.7481C244.706 55.442 244.788 55.2068 244.952 55.0425C245.117 54.8782 245.352 54.7961 245.658 54.7961H249.533C249.854 54.7961 250.097 54.8633 250.261 54.9977C250.426 55.1321 250.508 55.3262 250.508 55.5801C250.508 56.1177 250.183 56.3865 249.533 56.3865H246.711V57.8874H249.309C249.959 57.8874 250.284 58.1525 250.284 58.6826C250.284 58.9365 250.202 59.1306 250.037 59.2651C249.873 59.3995 249.63 59.4667 249.309 59.4667H246.711V61.1019H249.533C250.183 61.1019 250.508 61.3707 250.508 61.9084C250.508 62.1622 250.426 62.3564 250.261 62.4908C250.097 62.6252 249.854 62.6924 249.533 62.6924H245.658Z" fill="#12C3F7"/>
<path d="M67.3861 45C65.9999 45 64.9381 44.6461 64.2007 43.9382C63.4929 43.2008 63.1389 42.1538 63.1389 40.797V18.0126C63.1389 16.6558 63.4929 15.6235 64.2007 14.9157C64.9381 14.1783 65.9999 13.8096 67.3861 13.8096H78.1811C80.4227 13.8096 82.3251 14.1488 83.8883 14.8272C85.481 15.4761 86.6903 16.4051 87.5161 17.6144C88.342 18.8237 88.7549 20.2394 88.7549 21.8616C88.7549 23.6903 88.224 25.2535 87.1622 26.5512C86.1299 27.849 84.7141 28.7338 82.915 29.2057V28.4979C85.0386 28.8813 86.6755 29.7366 87.8258 31.0639C89.0056 32.3911 89.5955 34.0871 89.5955 36.1517C89.5955 38.8946 88.6074 41.0625 86.6313 42.6552C84.6846 44.2184 82.0154 45 78.6235 45H67.3861ZM70.9255 39.0274H77.5175C79.0217 39.0274 80.113 38.7472 80.7914 38.1868C81.4992 37.5969 81.8532 36.7268 81.8532 35.5765C81.8532 34.4262 81.4992 33.5709 80.7914 33.0105C80.113 32.4501 79.0217 32.1699 77.5175 32.1699H70.9255V39.0274ZM70.9255 26.1973H76.7211C78.1959 26.1973 79.2724 25.9318 79.9508 25.4009C80.6587 24.87 81.0126 24.0589 81.0126 22.9676C81.0126 21.8763 80.6587 21.08 79.9508 20.5786C79.2724 20.0477 78.1959 19.7822 76.7211 19.7822H70.9255V26.1973ZM95.5767 45.3982C94.6624 45.3982 93.8956 45.1917 93.2762 44.7788C92.6568 44.3364 92.2734 43.7465 92.1259 43.0091C91.9784 42.2423 92.1111 41.3869 92.5241 40.4431L103.54 16.7296C104.071 15.5793 104.72 14.7387 105.487 14.2078C106.283 13.6769 107.183 13.4114 108.186 13.4114C109.188 13.4114 110.059 13.6769 110.796 14.2078C111.563 14.7387 112.226 15.5793 112.787 16.7296L123.803 40.4431C124.275 41.3869 124.437 42.2423 124.29 43.0091C124.172 43.776 123.803 44.3659 123.184 44.7788C122.594 45.1917 121.856 45.3982 120.971 45.3982C119.792 45.3982 118.877 45.1327 118.228 44.6018C117.609 44.0709 117.049 43.2156 116.547 42.0358L114.158 36.4171L117.255 38.6734H99.0276L102.169 36.4171L99.7797 42.0358C99.2488 43.2156 98.7032 44.0709 98.1428 44.6018C97.5824 45.1327 96.727 45.3982 95.5767 45.3982ZM108.097 22.304L102.965 34.559L101.726 32.4354H114.601L113.362 34.559L108.186 22.304H108.097ZM131.93 45.3982C130.632 45.3982 129.629 45.0442 128.921 44.3364C128.214 43.599 127.86 42.5815 127.86 41.2837V17.5259C127.86 16.1692 128.214 15.1516 128.921 14.4732C129.629 13.7654 130.632 13.4114 131.93 13.4114C133.257 13.4114 134.26 13.7654 134.938 14.4732C135.646 15.1516 136 16.1692 136 17.5259V27.1706H136.089L146.839 15.3138C147.4 14.7239 147.99 14.2668 148.609 13.9423C149.258 13.5884 149.981 13.4114 150.777 13.4114C152.016 13.4114 152.9 13.7359 153.431 14.3848C153.992 15.0041 154.242 15.7415 154.183 16.5968C154.154 17.4227 153.815 18.1895 153.166 18.8974L142.459 30.2675V26.9494L153.697 39.6468C154.464 40.5021 154.847 41.3869 154.847 42.3013C154.847 43.1861 154.537 43.9235 153.918 44.5133C153.328 45.1032 152.443 45.3982 151.264 45.3982C150.261 45.3982 149.45 45.2065 148.83 44.823C148.24 44.4101 147.591 43.8055 146.884 43.0091L136.089 30.9311H136V41.2837C136 42.5815 135.661 43.599 134.983 44.3364C134.304 45.0442 133.287 45.3982 131.93 45.3982ZM163.603 45C162.217 45 161.155 44.6461 160.418 43.9382C159.71 43.2008 159.356 42.1538 159.356 40.797V18.0126C159.356 16.6558 159.71 15.6235 160.418 14.9157C161.155 14.1783 162.217 13.8096 163.603 13.8096H178.601C179.663 13.8096 180.459 14.0751 180.99 14.606C181.521 15.1369 181.786 15.9037 181.786 16.9065C181.786 17.9388 181.521 18.7352 180.99 19.2956C180.459 19.8265 179.663 20.0919 178.601 20.0919H167.143V26.0203H177.628C178.66 26.0203 179.442 26.2858 179.973 26.8167C180.533 27.3476 180.813 28.1292 180.813 29.1615C180.813 30.1938 180.533 30.9754 179.973 31.5063C179.442 32.0372 178.66 32.3026 177.628 32.3026H167.143V38.7177H178.601C179.663 38.7177 180.459 38.9979 180.99 39.5583C181.521 40.0892 181.786 40.856 181.786 41.8588C181.786 42.8911 181.521 43.6727 180.99 44.2036C180.459 44.7345 179.663 45 178.601 45H163.603ZM190.602 45.3982C189.304 45.3982 188.301 45.0442 187.594 44.3364C186.886 43.599 186.532 42.5815 186.532 41.2837V17.9241C186.532 16.5968 186.886 15.5793 187.594 14.8714C188.331 14.1635 189.348 13.8096 190.646 13.8096H201.53C205.069 13.8096 207.797 14.6797 209.714 16.4199C211.661 18.1306 212.634 20.5196 212.634 23.587C212.634 25.5632 212.192 27.2886 211.307 28.7633C210.452 30.2085 209.198 31.3293 207.547 32.1257C205.924 32.8925 203.919 33.276 201.53 33.276L201.884 32.4796H204.007C205.275 32.4796 206.396 32.7893 207.37 33.4087C208.343 33.9986 209.154 34.9129 209.803 36.1517L212.015 40.1334C212.487 40.9888 212.708 41.8293 212.679 42.6552C212.649 43.4515 212.325 44.1152 211.705 44.6461C211.115 45.1475 210.245 45.3982 209.095 45.3982C207.945 45.3982 207.001 45.1622 206.264 44.6903C205.556 44.2184 204.922 43.481 204.361 42.4782L200.335 35.0899C199.981 34.441 199.524 33.9986 198.964 33.7626C198.433 33.4972 197.813 33.3644 197.106 33.3644H194.672V41.2837C194.672 42.5815 194.333 43.599 193.655 44.3364C192.976 45.0442 191.959 45.3982 190.602 45.3982ZM194.672 27.613H200.07C201.633 27.613 202.827 27.3033 203.653 26.6839C204.479 26.0646 204.892 25.106 204.892 23.8082C204.892 22.5695 204.479 21.6404 203.653 21.021C202.827 20.3721 201.633 20.0477 200.07 20.0477H194.672V27.613ZM229.187 45.4867C228.008 45.4867 226.769 45.3982 225.471 45.2212C224.203 45.0737 222.993 44.8378 221.843 44.5133C220.693 44.1889 219.661 43.8055 218.746 43.3631C217.95 42.9796 217.39 42.4782 217.065 41.8588C216.741 41.21 216.623 40.5316 216.711 39.8237C216.8 39.1159 217.05 38.4965 217.463 37.9656C217.876 37.4052 218.422 37.0365 219.1 36.8595C219.779 36.6531 220.545 36.7416 221.401 37.125C222.522 37.6559 223.79 38.0688 225.206 38.3637C226.621 38.6587 227.949 38.8062 229.187 38.8062C231.134 38.8062 232.491 38.5555 233.258 38.0541C234.054 37.5232 234.452 36.8743 234.452 36.1074C234.452 35.429 234.172 34.8834 233.611 34.4705C233.081 34.0576 232.122 33.7036 230.736 33.4087L225.559 32.3026C222.728 31.7127 220.619 30.6804 219.233 29.2057C217.847 27.731 217.154 25.8286 217.154 23.4985C217.154 21.9648 217.463 20.5786 218.083 19.3398C218.732 18.0716 219.631 16.995 220.781 16.1102C221.961 15.2253 223.347 14.547 224.94 14.0751C226.562 13.5737 228.361 13.323 230.338 13.323C231.871 13.323 233.42 13.4999 234.983 13.8539C236.576 14.1783 237.947 14.6797 239.097 15.3581C239.776 15.712 240.262 16.1987 240.557 16.818C240.852 17.4374 240.97 18.0863 240.911 18.7647C240.852 19.4136 240.616 19.9887 240.203 20.4901C239.82 20.9915 239.289 21.3307 238.611 21.5077C237.962 21.6551 237.18 21.5372 236.266 21.1537C235.411 20.7703 234.437 20.4901 233.346 20.3131C232.284 20.1067 231.252 20.0035 230.249 20.0035C229.158 20.0035 228.229 20.1362 227.462 20.4016C226.695 20.6376 226.105 20.9915 225.692 21.4634C225.309 21.9353 225.117 22.481 225.117 23.1004C225.117 23.7198 225.368 24.2507 225.869 24.6931C226.4 25.106 227.359 25.4599 228.745 25.7549L233.877 26.8609C236.738 27.4803 238.876 28.4979 240.292 29.9136C241.708 31.3293 242.416 33.1727 242.416 35.4438C242.416 36.9775 242.106 38.3637 241.487 39.6025C240.867 40.8413 239.982 41.9031 238.832 42.7879C237.682 43.6433 236.295 44.3069 234.673 44.7788C233.051 45.2507 231.222 45.4867 229.187 45.4867Z" fill="#6736DD"/>
</svg>
